<svg width="25" height="24" viewBox="0 0 25 24" fill="none" xmlns="http://www.w3.org/2000/svg">
<path d="M22.7857 0H2.20893C1.26607 0 0.5 0.776786 0.5 1.73036V22.2696C0.5 23.2232 1.26607 24 2.20893 24H22.7857C23.7286 24 24.5 23.2232 24.5 22.2696V1.73036C24.5 0.776786 23.7286 0 22.7857 0ZM7.75357 20.5714H4.19643V9.11786H7.75893V20.5714H7.75357ZM5.975 7.55357C4.83393 7.55357 3.9125 6.62679 3.9125 5.49107C3.9125 4.35536 4.83393 3.42857 5.975 3.42857C7.11071 3.42857 8.0375 4.35536 8.0375 5.49107C8.0375 6.63214 7.11607 7.55357 5.975 7.55357ZM21.0875 20.5714H17.5304V15C17.5304 13.6714 17.5036 11.9625 15.6821 11.9625C13.8286 11.9625 13.5446 13.4089 13.5446 14.9036V20.5714H9.9875V9.11786H13.4V10.6821H13.4482C13.925 9.78214 15.0875 8.83393 16.8179 8.83393C20.4179 8.83393 21.0875 11.2071 21.0875 14.2929V20.5714Z" fill="white"/>
</svg>
