<svg width="20" height="22" viewBox="0 0 20 22" fill="none" xmlns="http://www.w3.org/2000/svg">
<path d="M19.5 9.02003C17.6322 9.02408 15.8104 8.43331 14.292 7.33119V15.0148C14.2915 16.4378 13.8623 17.8268 13.0617 18.9959C12.2611 20.1651 11.1272 21.0587 9.81181 21.5572C8.4964 22.0557 7.06212 22.1354 5.7008 21.7856C4.33948 21.4358 3.11602 20.6731 2.19405 19.5997C1.27208 18.5262 0.695553 17.1931 0.541577 15.7787C0.387601 14.3642 0.663516 12.9358 1.33242 11.6846C2.00132 10.4333 3.03133 9.41883 4.28468 8.77679C5.53802 8.13475 6.95496 7.89577 8.34599 8.09181V11.9551C7.70994 11.7522 7.02689 11.7581 6.39437 11.972C5.76185 12.1859 5.2122 12.5969 4.8239 13.1462C4.4356 13.6954 4.22851 14.355 4.2322 15.0307C4.23588 15.7063 4.45016 16.3635 4.84442 16.9084C5.23869 17.4533 5.79279 17.8581 6.42761 18.0649C7.06242 18.2717 7.74549 18.2699 8.37929 18.06C9.01309 17.85 9.5652 17.4424 9.95679 16.8956C10.3484 16.3487 10.5594 15.6904 10.5598 15.0148V0H14.292C14.2899 0.319832 14.3168 0.639182 14.3725 0.954C14.5023 1.65575 14.772 2.32331 15.165 2.91589C15.5581 3.50846 16.0662 4.0136 16.6585 4.40043C17.5015 4.9646 18.4897 5.26499 19.5 5.26419V9.02003Z" fill="white"/>
</svg>
