<svg width="23" height="22" viewBox="0 0 23 22" fill="none" xmlns="http://www.w3.org/2000/svg">
<path d="M11.5025 5.35948C8.38098 5.35948 5.86319 7.87783 5.86319 11C5.86319 14.1222 8.38098 16.6405 11.5025 16.6405C14.6239 16.6405 17.1417 14.1222 17.1417 11C17.1417 7.87783 14.6239 5.35948 11.5025 5.35948ZM11.5025 14.6671C9.48528 14.6671 7.8362 13.0225 7.8362 11C7.8362 8.97746 9.48037 7.33292 11.5025 7.33292C13.5245 7.33292 15.1687 8.97746 15.1687 11C15.1687 13.0225 13.5196 14.6671 11.5025 14.6671ZM18.6877 5.12875C18.6877 5.8602 18.0988 6.44438 17.3724 6.44438C16.6411 6.44438 16.0571 5.85529 16.0571 5.12875C16.0571 4.40221 16.646 3.81312 17.3724 3.81312C18.0988 3.81312 18.6877 4.40221 18.6877 5.12875ZM22.4227 6.46402C22.3393 4.70166 21.9368 3.14058 20.646 1.8544C19.3601 0.568225 17.7994 0.165681 16.0374 0.0773179C14.2215 -0.0257726 8.77853 -0.0257726 6.96258 0.0773179C5.20552 0.160772 3.64479 0.563316 2.35399 1.84949C1.06319 3.13567 0.665644 4.69675 0.577301 6.45911C0.474233 8.27547 0.474233 13.7196 0.577301 15.536C0.660736 17.2983 1.06319 18.8594 2.35399 20.1456C3.64479 21.4318 5.20061 21.8343 6.96258 21.9227C8.77853 22.0258 14.2215 22.0258 16.0374 21.9227C17.7994 21.8392 19.3601 21.4367 20.646 20.1456C21.9319 18.8594 22.3344 17.2983 22.4227 15.536C22.5258 13.7196 22.5258 8.28037 22.4227 6.46402ZM20.0767 17.4849C19.6939 18.4471 18.9528 19.1883 17.9859 19.5761C16.538 20.1505 13.1025 20.018 11.5025 20.018C9.90245 20.018 6.46196 20.1456 5.01902 19.5761C4.05705 19.1932 3.31595 18.452 2.92822 17.4849C2.35399 16.0367 2.4865 12.6004 2.4865 11C2.4865 9.39964 2.3589 5.95838 2.92822 4.51512C3.31104 3.55294 4.05215 2.81167 5.01902 2.42385C6.46687 1.84949 9.90245 1.98204 11.5025 1.98204C13.1025 1.98204 16.5429 1.8544 17.9859 2.42385C18.9479 2.80676 19.689 3.54803 20.0767 4.51512C20.6509 5.96329 20.5184 9.39964 20.5184 11C20.5184 12.6004 20.6509 16.0416 20.0767 17.4849Z" fill="white"/>
</svg>
